<svg xmlns="http://www.w3.org/2000/svg" xmlns:xlink="http://www.w3.org/1999/xlink">
    <g>
        <title>Quick Order Actions</title>
        <ellipse stroke="null" ry="28" rx="28" id="circle" cy="30" cx="30" stroke-opacity="null" stroke-width="null" fill="#193533"/>
        <path fill="#ffffff" stroke="null" id="material_design_icon" d="m25.833128,26.222853l0,-5.547751c0,-2.047031 1.661359,-3.70839 3.70839,-3.70839s3.70839,1.661359 3.70839,3.70839l0,5.547751c1.794861,-1.201518 2.966712,-3.233716 2.966712,-5.547751c0,-3.693556 -2.981546,-6.675102 -6.675102,-6.675102s-6.675102,2.981546 -6.675102,6.675102c0,2.314035 1.171851,4.346233 2.966712,5.547751zm8.158458,3.663889c-0.41534,-0.20767 -0.860346,-0.311505 -1.320187,-0.311505l-0.904847,0l0,-8.900136c0,-1.231185 -0.993849,-2.225034 -2.225034,-2.225034s-2.225034,0.993849 -2.225034,2.225034l0,15.931243l-5.102745,-1.068016c-0.548842,-0.118668 -1.127351,0.059334 -1.527857,0.45984c-0.637843,0.652677 -0.637843,1.691026 0,2.343702l5.948258,5.948258c0.563675,0.548842 1.320187,0.860346 2.106366,0.860346l9.048472,0c1.483356,0 2.729375,-1.08285 2.937045,-2.551372l0.934514,-6.630601c0.178003,-1.260853 -0.474674,-2.506872 -1.616858,-3.070547l-6.052092,-3.011213z"/>
    </g>
</svg>