<svg xmlns="http://www.w3.org/2000/svg" width="56" height="56" viewBox="0 0 56 56">
  <defs>
    <linearGradient id="quick-order-actions-icon-a" x1="50%" x2="50%" y1="0%" y2="100%">
      <stop offset="0%" stop-color="#095C56"/>
      <stop offset="100%" stop-color="#193533"/>
    </linearGradient>
    <linearGradient id="quick-order-actions-icon-b" x1="50%" x2="50%" y1="-39.018%" y2="140.096%">
      <stop offset="0%" stop-color="#095C56"/>
      <stop offset="100%" stop-color="#193533"/>
    </linearGradient>
  </defs>
  <g fill="none">
    <circle cx="28" cy="28" r="28" fill="url(#quick-order-actions-icon-a)"/>
    <path fill="#FFF" stroke="url(#quick-order-actions-icon-b)" d="M22.6256282,24.222853 L22.6256282,18.675102 C22.6256282,16.628071 24.2869872,14.966712 26.3340182,14.966712 C28.3810493,14.966712 30.0424082,16.628071 30.0424082,18.675102 L30.0424082,24.222853 C31.8372692,23.021335 33.0091202,20.989137 33.0091202,18.675102 C33.0091202,14.981546 30.0275742,12 26.3340182,12 C22.6404623,12 19.6589163,14.981546 19.6589163,18.675102 C19.6589163,20.989137 20.8307673,23.021335 22.6256283,24.222853 L22.6256282,24.222853 Z M29.4638992,27.575237 L28.5590523,27.575237 L28.5590523,18.675101 C28.5590523,17.443916 27.5652032,16.450067 26.3340182,16.450067 C25.1028332,16.450067 24.1089842,17.443916 24.1089842,18.675101 L24.1089842,34.606344 L19.0062393,33.538328 C18.4573972,33.41966 17.8788882,33.597662 17.4783822,33.998168 C16.8405392,34.650845 16.8405392,35.689194 17.4783822,36.34187 L23.4266402,42.290128 C23.9903152,42.83897 24.7468272,43.150474 25.5330062,43.150474 L34.5814782,43.150474 C36.0648342,43.150474 37.3108532,42.067624 37.5185232,40.599102 L38.4530372,33.968501 C38.6310402,32.707648 37.9783632,31.461629 36.8361792,30.897954 L30.7840872,27.886741 C30.3687462,27.679072 29.9237402,27.575237 29.4638992,27.575237 Z"/>
  </g>
</svg>
